# xmcd
#
# Track frame offsets:
# 150
# 19797
# 33815
# 48289
# 63653
# 79423
# 90409
# 104404
# 123572
# 138973
# 153184
# 169990
#
# Disc length: 2351 seconds
#
#
# Revision: 0
# Processed by: cddbd v1.4PL0 Copyright (c) Steve Scherf et al.
# Submitted via: FreeRIP 2.51 
#
DISCID=96092d0c
DTITLE=Alex - Acervo Gaucho
DYEAR=1998
DGENRE=Nativista
TTITLE0=Tertúlia
TTITLE1=Fincão
TTITLE2=Esquilador
TTITLE3=É Disto Que o Velho Gosta
TTITLE4=Guri
TTITLE5=Barranca e Fronteira
TTITLE6=Ronco da Oito Baixos
TTITLE7=Festa Crioula
TTITLE8=Nheco Vari Nheco Fum
TTITLE9=Cantiga de Rio e Remo
TTITLE10=Recuerdos da Vinte e Oito
TTITLE11=Xote das Duas Damas
EXTD=
EXTT0=Jader merice Teixeira (Leonardo)
EXTT1=Bruno Neher e Sidnei Lima
EXTT2=Telmo de Lima Freitas
EXTT3=Gildo Campos e Berenice Azambuja
EXTT4=João batista Machado e Julio Machado da Silva neto
EXTT5=Antônio Augusto Faguntes e Luiz Telles
EXTT6=Pedro Ortaça e Altamir Pimenta
EXTT7=Antonio Carlos e Jocafi
EXTT8=Gaúcho da Fronteira
EXTT9=Apparício Silva Rillo e José G. L. Bicca
EXTT10=Kenelmo Alves e francisco Alves
EXTT11=Paixão Cortes e Barbosa Lessa
PLAYORDER=
